<?xml version="1.0" standalone="no"?><!DOCTYPE svg PUBLIC "-//W3C//DTD SVG 1.1//EN" "http://www.w3.org/Graphics/SVG/1.1/DTD/svg11.dtd"><svg t="1744182407059" class="icon" viewBox="0 0 1024 1024" version="1.1" xmlns="http://www.w3.org/2000/svg" p-id="24693" xmlns:xlink="http://www.w3.org/1999/xlink" width="200" height="200"><path d="M330.451063 871.504012V188.7597C330.451063 84.770619 270.745332 0.107509 197.281045 0.107509H109.290285C84.332905 0.107509 64.047035 23.14509 64.047035 51.558106c0 28.413017 20.28587 51.450598 45.24325 51.450598h87.99076c19.773924 0 42.683518 37.436069 42.683519 85.750996v697.52676c0 81.399453 32.76456 106.100859 52.28251 113.588073 5.503422 2.175772 12.47869 3.90359 20.733823 3.90359 21.117783 0 50.234725-11.518791 81.463446-57.977912L974.67142 82.722834c15.166408-22.525635 11.390804-54.842242-8.447114-72.120427-19.837917-17.214193-48.314927-12.990636-63.481334 9.662985L330.515056 871.504012z" fill="#cccccc" p-id="24694"></path></svg>