<?xml version="1.0" standalone="no"?><!DOCTYPE svg PUBLIC "-//W3C//DTD SVG 1.1//EN" "http://www.w3.org/Graphics/SVG/1.1/DTD/svg11.dtd"><svg t="1744009385177" class="icon" viewBox="0 0 1024 1024" version="1.1" xmlns="http://www.w3.org/2000/svg" p-id="13407" xmlns:xlink="http://www.w3.org/1999/xlink" width="200" height="200"><path d="M479.13 127.52q-7.37-18.97-21.07-33.2-13.7-14.22-32.67-21.6-36.89-14.76-73.78 0-17.91 11.59-32.14 23.71-14.23 12.12-21.61 31.09L3.83 837.85q-7.38 20.02-0.53 37.94 6.85 17.92 25.29 25.83 18.45 7.9 36.89 1.05 18.44-6.86 26.87-24.76l83.26-191.81h426.83l77.99 191.81q14.75 29.51 44.26 29.51 4.22 0 10.01-1.05 5.8-1.06 10.02-4.22 18.97-8.43 26.88-26.35 7.9-17.92-2.63-37.94L479.14 127.53zM214.61 588.08l171.78-421.56 171.79 421.56H214.61z m759.86-441.59h-98.02V48.48q0-22.13-13.17-35.3Q850.11 0 827.98 0q-22.13 0-35.3 13.18-13.17 13.18-14.23 35.3v98.01h-98.01q-22.13 0-35.3 13.18-13.17 13.17-13.17 35.83 0 22.66 13.17 35.83 13.17 13.17 35.3 13.17h98.01v98.02q1.06 23.18 14.23 36.36t35.3 13.18q22.13 0 35.3-13.18 13.17-13.18 13.17-36.36V244.5h98.02q23.18 0 36.36-13.17Q1024 218.16 1024 195.5q0-22.66-13.17-35.83-13.18-13.18-36.36-13.18z" fill="#cccccc" p-id="13408"></path></svg>