<?xml version="1.0" standalone="no"?><!DOCTYPE svg PUBLIC "-//W3C//DTD SVG 1.1//EN" "http://www.w3.org/Graphics/SVG/1.1/DTD/svg11.dtd"><svg t="1744190035943" class="icon" viewBox="0 0 1024 1024" version="1.1" xmlns="http://www.w3.org/2000/svg" p-id="647" width="256" height="256" xmlns:xlink="http://www.w3.org/1999/xlink"><path d="M718.848 150.186667a26.965333 26.965333 0 0 1 46.762667 26.282666l-216.746667 386.048-32.426667-57.002666zM268.629333 139.946667a26.624 26.624 0 0 1 34.133334 11.264l266.24 506.538666-42.325334 34.133334L257.365333 176.128a26.282667 26.282667 0 0 1 11.264-36.181333z m29.696 387.413333A196.266667 196.266667 0 0 1 479.573333 648.533333a26.965333 26.965333 0 1 1-49.834666 20.821334 143.018667 143.018667 0 1 0-45.397334 167.936l3.413334-2.048L651.946667 614.4a168.277333 168.277333 0 0 1 98.986666-34.133333 170.666667 170.666667 0 1 1-140.970666 264.533333l-3.072-4.778667a227.328 227.328 0 0 1-20.138667-36.181333l-14.336-27.306667 41.301333-34.133333 8.533334 16.042667c0 2.048 2.048 4.778667 3.413333 7.168l3.754667 7.168c7.850667 16.042667 17.408 34.133333 17.408 34.133333a130.389333 130.389333 0 0 0 104.106666 61.44 116.736 116.736 0 0 0 0-233.130667 114.005333 114.005333 0 0 0-68.266666 22.186667l-268.288 224.938667a196.608 196.608 0 1 1-117.76-354.986667z" opacity=".6" p-id="648" fill="#f8380c"></path></svg>