<?xml version="1.0" standalone="no"?><!DOCTYPE svg PUBLIC "-//W3C//DTD SVG 1.1//EN" "http://www.w3.org/Graphics/SVG/1.1/DTD/svg11.dtd"><svg t="1744009294900" class="icon" viewBox="0 0 1024 1024" version="1.1" xmlns="http://www.w3.org/2000/svg" p-id="11518" xmlns:xlink="http://www.w3.org/1999/xlink" width="200" height="200"><path d="M838 838H186q-79-2-131.5-54.5T0 652V186q2-79 54.5-131.5T186 0h652q79 2 131.5 54.5T1024 186v466q-2 79-54.5 131.5T838 838zM186 93q-39 1-65.5 27.5T93 186v466q1 39 27.5 65.5T186 745h652q39-1 65.5-27.5T931 652V186q-1-39-27.5-65.5T838 93H186z m93 549q-14 0-25-11t-12-26V233q0-15 10-26t27.5-11q17.5 0 27 11t10.5 26v372q-1 15-12 26t-26 11z m70-93H209q-14 0-23-11t-9-25.5q0-14.5 10-26t27-11.5h140q14 0 25 9.5t11 27.5q0 18-13 27.5t-28 9.5z m163 93q-15 0-26-11t-11-26V233q0-15 9.5-26t27.5-11q18 0 27.5 11t9.5 26v372q0 15-11 26t-26 11z m70-279H442q-14 0-23-11.5t-9-26q0-14.5 9.5-25.5t27.5-11h139q15 0 26 9.5t11 27.5q0 18-13 27.5t-28 9.5z m233 140H675q-15 0-26-10t-11-27.5q0-17.5 9.5-27.5t27.5-10h140q14 0 25 10t11 27.5q0 17.5-11 27.5t-25 10z m-70 139q-15 0-26-9.5T707 605V233q1-15 10.5-26t27-11q17.5 0 27.5 9.5t10 27.5v372q-1 15-12 26t-25 11z" fill="#cccccc" p-id="11519"></path></svg>