<?xml version="1.0" standalone="no"?><!DOCTYPE svg PUBLIC "-//W3C//DTD SVG 1.1//EN" "http://www.w3.org/Graphics/SVG/1.1/DTD/svg11.dtd"><svg t="1744009465901" class="icon" viewBox="0 0 1024 1024" version="1.1" xmlns="http://www.w3.org/2000/svg" p-id="17030" xmlns:xlink="http://www.w3.org/1999/xlink" width="200" height="200"><path d="M810.666667 192a21.333333 21.333333 0 0 1 21.333333 21.333333v384a21.333333 21.333333 0 0 1-21.333333 21.333334H213.333333a21.333333 21.333333 0 0 1-21.333333-21.333334V213.333333a21.333333 21.333333 0 0 1 21.333333-21.333333h597.333334M810.666667 128H213.333333a85.333333 85.333333 0 0 0-85.333333 85.333333v384a85.333333 85.333333 0 0 0 85.333333 85.333334h266.666667v128h-149.333333a32 32 0 0 0 0 64h362.666666a32 32 0 0 0 0-64h-149.333333v-128H810.666667a85.333333 85.333333 0 0 0 85.333333-85.333334V213.333333a85.333333 85.333333 0 0 0-85.333333-85.333333z" fill="#cccccc" p-id="17031"></path></svg>