<?xml version="1.0" standalone="no"?><!DOCTYPE svg PUBLIC "-//W3C//DTD SVG 1.1//EN" "http://www.w3.org/Graphics/SVG/1.1/DTD/svg11.dtd"><svg t="1744182233571" class="icon" viewBox="0 0 1024 1024" version="1.1" xmlns="http://www.w3.org/2000/svg" p-id="3854" xmlns:xlink="http://www.w3.org/1999/xlink" width="200" height="200"><path d="M797.7 960.8H219.3c-69.4 0-125.8-56.4-125.8-125.8V348.6c0-69.4 56.4-125.8 125.8-125.8 24.8 0 44.8 20.1 44.8 44.8s-20.1 44.8-44.8 44.8c-19.9 0-36.1 16.2-36.1 36.1V835c0 19.9 16.2 36.1 36.1 36.1h578.4c19.9 0 36.1-16.2 36.1-36.1V348.6c0-19.9-16.2-36.1-36.1-36.1H385c-24.8 0-44.8-20.1-44.8-44.8s20.1-44.8 44.8-44.8h412.7c69.4 0 125.8 56.4 125.8 125.8V835c0 69.3-56.4 125.8-125.8 125.8z" fill="#f86442" p-id="3855"></path><path d="M417 769.7c-98.1 0-178-79.8-178-178s79.8-177.9 178-177.9 177.9 79.8 177.9 177.9-79.8 178-177.9 178z m0-266.2c-48.7 0-88.3 39.6-88.3 88.3 0 48.7 39.6 88.3 88.3 88.3s88.3-39.6 88.3-88.3c-0.1-48.7-39.7-88.3-88.3-88.3z" fill="#f86442" p-id="3856"></path><path d="M709.5 516.5m-45.4 0a45.4 45.4 0 1 0 90.8 0 45.4 45.4 0 1 0-90.8 0Z" fill="#f86442" p-id="3857"></path><path d="M709.5 654.1m-45.4 0a45.4 45.4 0 1 0 90.8 0 45.4 45.4 0 1 0-90.8 0Z" fill="#f86442" p-id="3858"></path><path d="M385 312.5c-15.6 0-30.7-8.1-39-22.7-12.3-21.5-4.8-48.9 16.8-61.2l279.1-159c21.5-12.3 48.9-4.7 61.2 16.8 12.3 21.5 4.8 48.9-16.8 61.2l-279.1 159c-7 4-14.7 5.9-22.2 5.9z" fill="#f86442" p-id="3859"></path></svg>