<?xml version="1.0" standalone="no"?><!DOCTYPE svg PUBLIC "-//W3C//DTD SVG 1.1//EN" "http://www.w3.org/Graphics/SVG/1.1/DTD/svg11.dtd"><svg t="1744194500947" class="icon" viewBox="0 0 1024 1024" version="1.1" xmlns="http://www.w3.org/2000/svg" p-id="47872" xmlns:xlink="http://www.w3.org/1999/xlink" width="256" height="256"><path d="M800 896a32 32 0 1 1 0 64h-576a32 32 0 1 1 0-64h576zM832 64a128 128 0 0 1 128 128v512a128 128 0 0 1-128 128H192a128 128 0 0 1-128-128V192a128 128 0 0 1 128-128h640z m0 64H192a64 64 0 0 0-63.552 56.512L128 192v512a64 64 0 0 0 56.512 63.552L192 768h640a64 64 0 0 0 63.552-56.512L896 704V192a64 64 0 0 0-64-64z" fill="#41414C" p-id="47873"></path></svg>