<?xml version="1.0" standalone="no"?><!DOCTYPE svg PUBLIC "-//W3C//DTD SVG 1.1//EN" "http://www.w3.org/Graphics/SVG/1.1/DTD/svg11.dtd"><svg t="1744208547809" class="icon" viewBox="0 0 1024 1024" version="1.1" xmlns="http://www.w3.org/2000/svg" p-id="73605" xmlns:xlink="http://www.w3.org/1999/xlink" width="256" height="256"><path d="M921.6 618.666667c-17.066667-51.2-34.133333-93.866667-59.733333-157.866667l-12.8-34.133333c0-145.066667-38.4-264.533333-110.933334-337.066667C678.4 29.866667 605.866667 0 512 0 418.133333 0 341.333333 29.866667 285.866667 89.6c-72.533333 76.8-110.933333 196.266667-110.933334 341.333333l-12.8 29.866667c-25.6 59.733333-42.666667 106.666667-59.733333 157.866667-34.133333 102.4-38.4 183.466667-17.066667 217.6 8.533333 12.8 21.333333 21.333333 34.133334 21.333333 12.8 0 29.866667 4.266667 68.266666-38.4 8.533333 21.333333 21.333333 46.933333 38.4 68.266667-38.4 21.333333-46.933333 42.666667-51.2 46.933333-8.533333 17.066667-4.266667 34.133333 4.266667 51.2 34.133333 55.466667 290.133333 34.133333 328.533333 29.866667 21.333333 0 89.6 8.533333 157.866667 8.533333 76.8 0 153.6-8.533333 170.666667-38.4 8.533333-17.066667 12.8-34.133333 4.266666-51.2-4.266667-8.533333-12.8-25.6-51.2-51.2 17.066667-21.333333 29.866667-46.933333 38.4-68.266667 34.133333 38.4 55.466667 38.4 68.266667 38.4 12.8 0 25.6-8.533333 34.133333-21.333333 29.866667-34.133333 21.333333-110.933333-8.533333-213.333333zM345.6 149.333333c42.666667-42.666667 98.133333-64 166.4-64s123.733333 21.333333 166.4 64c51.2 51.2 81.066667 140.8 85.333333 243.2-162.133333 59.733333-337.066667 59.733333-503.466666 0 4.266667-102.4 34.133333-192 85.333333-243.2z m503.466667 546.133334c-8.533333-17.066667-29.866667-25.6-46.933334-17.066667-17.066667 4.266667-29.866667 21.333333-29.866666 42.666667 0 38.4-21.333333 106.666667-76.8 153.6-12.8 8.533333-17.066667 25.6-12.8 42.666666 4.266667 12.8 8.533333 21.333333 17.066666 25.6-59.733333 0-136.533333-4.266667-179.2-8.533333h-4.266666-4.266667c-42.666667 4.266667-119.466667 8.533333-179.2 8.533333 8.533333-4.266667 17.066667-17.066667 17.066667-25.6 4.266667-17.066667-4.266667-29.866667-12.8-42.666666-59.733333-46.933333-76.8-115.2-76.8-153.6 0-17.066667-12.8-34.133333-29.866667-42.666667-17.066667-4.266667-38.4 4.266667-46.933333 17.066667l-4.266667 4.266666c4.266667-17.066667 8.533333-34.133333 17.066667-55.466666 17.066667-46.933333 34.133333-89.6 55.466666-149.333334l4.266667-12.8c12.8 4.266667 21.333333 8.533333 34.133333 12.8v81.066667c0 25.6 17.066667 42.666667 42.666667 42.666667s42.666667-17.066667 42.666667-42.666667V512c46.933333 8.533333 98.133333 12.8 145.066666 12.8 89.6 0 179.2-17.066667 264.533334-46.933333l4.266666 12.8c25.6 59.733333 42.666667 102.4 55.466667 149.333333 8.533333 21.333333 12.8 38.4 17.066667 55.466667-8.533333 4.266667-8.533333 0-12.8 0z" fill="#72727A" p-id="73606"></path></svg>